<svg xmlns="http://www.w3.org/2000/svg" xmlns:xlink="http://www.w3.org/1999/xlink" width="16" height="16" version="1.1"><defs><rect id="rect-0" width="16" height="16" x="0" y="0" opacity="1"/><path id="path-1" d="M1,1 L15,1 C15.551915024494,1 16,1.4480849755060001 16,2 C16,2.551915024494 15.551915024494,3 15,3 L1,3 C0.448084975506,3 0,2.551915024494 0,2 C0,1.4480849755060001 0.448084975506,1 1,1Z" opacity="1"/><path id="path-2" d="M1,7 L15,7 C15.551915024494,7 16,7.448084975506 16,8 C16,8.551915024494 15.551915024494,9 15,9 L1,9 C0.448084975506,9 0,8.551915024494 0,8 C0,7.448084975506 0.448084975506,7 1,7Z" opacity="1"/><path id="path-3" d="M1,13 L7,13 C7.551915024494,13 8,13.448084975506 8,14 C8,14.551915024494 7.551915024494,15 7,15 L1,15 C0.448084975506,15 0,14.551915024494 0,14 C0,13.448084975506 0.448084975506,13 1,13Z" opacity="1"/></defs><g opacity="1"><g opacity="1"><use fill="#4775F2" fill-opacity="1" xlink:href="#path-1"/></g><g opacity="1"><use fill="#4775F2" fill-opacity="1" xlink:href="#path-2"/></g><g opacity="1"><use fill="#4775F2" fill-opacity=".49" xlink:href="#path-3"/></g></g></svg>